# xmcd
#
# Track frame offsets: 
#        150
#        28223
#        53019
#        73576
#        103356
#        129205
#        149359
#        170363
#        187300
#        203899
#        230558
#        256450
#        287282
#
# Disc length: 4191 seconds
#
# Revision: 1
# Processed by: cddbd v1.5.2PL0 Copyright (c) Steve Scherf et al.
# Submitted via: ExactAudioCopy v1.0b3
#
DISCID=c5105d0d
DTITLE=Full Force - Full Force
DYEAR=1985
DGENRE=R&B
TTITLE0=Alice, I Want You Just For Me!
TTITLE1=Unselfish Lover
TTITLE2=Please Stay
TTITLE3=United
TTITLE4=Girl If You Take Me Home
TTITLE5=The Dream Believer
TTITLE6=Half A Chance
TTITLE7=The Man Upstairs
TTITLE8=Let's Dance Against The Wall
TTITLE9=Alice (Bang Zoom)
TTITLE10=Girl (Funky Fresh Def Mix)
TTITLE11=So Unselfish (It's Okay, It's Okay)
TTITLE12=Let's Dance Against The Wall (12" Mix)
EXTD=
EXTT0=
EXTT1=
EXTT2=
EXTT3=
EXTT4=
EXTT5=
EXTT6=
EXTT7=
EXTT8=
EXTT9=
EXTT10=
EXTT11=
EXTT12=
PLAYORDER=
